<svg width="421" height="41" viewBox="0 0 421 41" fill="none" xmlns="http://www.w3.org/2000/svg">
<path d="M85.7569 9.53674e-07L87.9969 39.6308H81.9087L80.961 20.3323C80.827 17.4414 80.7696 14.7419 80.7887 12.2338C80.8079 9.70667 80.8557 7.58154 80.9323 5.85846L75.1026 32.6523H69.3015L63.041 5.85846C63.1559 7.50496 63.2325 9.64923 63.2708 12.2913C63.3282 14.9333 63.3091 17.6328 63.2133 20.3897L62.4379 39.6308H56.4646L58.7046 9.53674e-07H66.6882L72.3456 26.5641L77.7446 9.53674e-07H85.7569ZM117.74 32.1928C117.74 33.399 117.922 34.2701 118.286 34.8062C118.65 35.3422 119.234 35.7443 120.038 36.0123L118.602 40.3774C117.109 40.2051 115.816 39.7935 114.725 39.1426C113.653 38.4916 112.849 37.5056 112.313 36.1846C111.202 37.6014 109.795 38.6639 108.091 39.3723C106.387 40.0615 104.568 40.4062 102.635 40.4062C99.5523 40.4062 97.1208 39.5446 95.3403 37.8215C93.5598 36.0793 92.6695 33.801 92.6695 30.9867C92.6695 27.7894 93.914 25.3292 96.4029 23.6062C98.8918 21.8831 102.453 21.0215 107.086 21.0215H111.422V19.04C111.422 17.068 110.829 15.6609 109.642 14.8185C108.455 13.9569 106.799 13.5262 104.674 13.5262C103.678 13.5262 102.472 13.6602 101.055 13.9282C99.6384 14.1771 98.1547 14.5696 96.6039 15.1056L95.0244 10.5682C96.9198 9.85983 98.7769 9.34291 100.596 9.01744C102.414 8.67282 104.099 8.50051 105.65 8.50051C109.709 8.50051 112.734 9.40034 114.725 11.2C116.735 12.9997 117.74 15.4885 117.74 18.6667V32.1928ZM104.587 35.6677C105.889 35.6677 107.163 35.3231 108.407 34.6338C109.651 33.9446 110.657 32.9778 111.422 31.7333V25.0421H107.861C104.836 25.0421 102.673 25.5494 101.371 26.5641C100.069 27.5597 99.4183 28.9381 99.4183 30.6995C99.4183 34.0116 101.141 35.6677 104.587 35.6677ZM129.305 39.6308V35.0359H133.757V13.8708H129.305V9.30462H138.667L139.845 16.3405C140.974 13.7942 142.372 11.8605 144.038 10.5395C145.722 9.19932 147.886 8.52923 150.528 8.52923C151.428 8.52923 152.232 8.60581 152.94 8.75897C153.668 8.89299 154.386 9.07487 155.094 9.30462L154.003 20.4759H149.408V14.3015C147.264 14.3781 145.416 15.2397 143.865 16.8862C142.314 18.5135 141.089 20.8109 140.189 23.7785V35.0359H146.306V39.6308H129.305ZM178.089 35.1221C179.505 35.1221 180.826 34.8732 182.052 34.3754C183.277 33.8776 184.445 33.2458 185.555 32.48L188.542 36.6154C187.221 37.745 185.613 38.6639 183.717 39.3723C181.841 40.0615 179.898 40.4062 177.888 40.4062C174.786 40.4062 172.125 39.7552 169.904 38.4533C167.702 37.1323 166.017 35.2944 164.85 32.9395C163.701 30.5655 163.127 27.7894 163.127 24.6113C163.127 21.5289 163.71 18.7815 164.878 16.3692C166.065 13.9378 167.769 12.0232 169.99 10.6256C172.211 9.20889 174.882 8.50051 178.002 8.50051C182.061 8.50051 185.565 9.71624 188.513 12.1477L185.555 16.1969C184.368 15.3737 183.153 14.7515 181.908 14.3303C180.664 13.8899 179.4 13.6697 178.117 13.6697C175.705 13.6697 173.743 14.5504 172.23 16.3118C170.718 18.0732 169.961 20.8397 169.961 24.6113C169.961 28.4021 170.727 31.1015 172.259 32.7097C173.79 34.3179 175.734 35.1221 178.089 35.1221ZM204.357 9.30462V30.4985C204.357 32.2981 204.711 33.5809 205.42 34.3467C206.147 35.1125 207.238 35.4954 208.694 35.4954C210.072 35.4954 211.403 35.0838 212.685 34.2605C213.968 33.4373 214.983 32.4321 215.729 31.2451V9.30462H222.162V39.6308H216.62L216.218 35.7538C215.088 37.2663 213.662 38.4246 211.939 39.2287C210.216 40.0137 208.454 40.4062 206.655 40.4062C203.706 40.4062 201.514 39.602 200.078 37.9938C198.642 36.3665 197.924 34.1361 197.924 31.3026V9.30462H204.357ZM243.405 35.4667C245.415 35.4667 247.014 35.1125 248.201 34.4041C249.388 33.6766 249.982 32.681 249.982 31.4174C249.982 30.5942 249.809 29.8954 249.465 29.321C249.12 28.7467 248.431 28.2106 247.397 27.7128C246.363 27.215 244.793 26.6981 242.687 26.1621C240.696 25.6451 238.944 25.0325 237.432 24.3241C235.938 23.6157 234.78 22.6968 233.957 21.5672C233.134 20.4376 232.722 18.9826 232.722 17.2021C232.722 14.5983 233.804 12.5019 235.967 10.9128C238.15 9.30462 241.108 8.50051 244.841 8.50051C247.387 8.50051 249.608 8.83555 251.504 9.50564C253.399 10.1757 255.017 11.0085 256.357 12.0041L253.657 16.0533C252.47 15.2684 251.169 14.627 249.752 14.1292C248.354 13.6315 246.775 13.3826 245.013 13.3826C242.965 13.3826 241.491 13.6889 240.591 14.3015C239.71 14.9142 239.27 15.7279 239.27 16.7426C239.27 17.5084 239.49 18.1402 239.93 18.6379C240.39 19.1357 241.175 19.6048 242.285 20.0451C243.396 20.4855 244.965 20.9832 246.995 21.5385C248.967 22.0745 250.68 22.7063 252.135 23.4338C253.61 24.1614 254.749 25.1282 255.553 26.3344C256.376 27.5214 256.788 29.0721 256.788 30.9867C256.788 33.1692 256.156 34.9593 254.892 36.3569C253.629 37.7354 251.982 38.7597 249.953 39.4297C247.923 40.0807 245.741 40.4062 243.405 40.4062C240.591 40.4062 238.159 40.0041 236.111 39.2C234.062 38.3768 232.339 37.3525 230.942 36.1272L234.359 32.2215C235.546 33.1788 236.905 33.9638 238.437 34.5764C239.969 35.1699 241.625 35.4667 243.405 35.4667ZM293.94 19.6144C293.94 23.7115 293.404 27.0715 292.332 29.6944C291.26 32.3173 289.834 34.3467 288.053 35.7826C286.273 37.2185 284.291 38.2236 282.108 38.7979C279.926 39.3532 277.734 39.6308 275.532 39.6308H265.825V9.53674e-07H274.872C277.284 9.53674e-07 279.62 0.258463 281.879 0.775386C284.157 1.29231 286.196 2.24957 287.996 3.64718C289.814 5.02564 291.26 7.00718 292.332 9.5918C293.404 12.1573 293.94 15.4981 293.94 19.6144ZM286.933 19.6144C286.933 16.4554 286.617 13.9186 285.985 12.0041C285.373 10.0896 284.55 8.63453 283.516 7.63897C282.482 6.64342 281.324 5.97333 280.041 5.62872C278.758 5.2841 277.456 5.11179 276.135 5.11179H272.488V34.5764H276.164C277.542 34.5764 278.873 34.3562 280.156 33.9159C281.438 33.4756 282.587 32.7097 283.602 31.6185C284.636 30.5272 285.449 29.0147 286.043 27.081C286.636 25.1282 286.933 22.6393 286.933 19.6144ZM306.625 26.5354C306.817 29.6561 307.688 31.9152 309.239 33.3128C310.808 34.7104 312.694 35.4092 314.896 35.4092C316.37 35.4092 317.739 35.1795 319.003 34.72C320.285 34.2605 321.568 33.6096 322.851 32.7672L325.636 36.6154C324.22 37.7641 322.564 38.6831 320.668 39.3723C318.773 40.0615 316.743 40.4062 314.58 40.4062C311.421 40.4062 308.75 39.7361 306.568 38.3959C304.404 37.0557 302.758 35.1891 301.628 32.7959C300.518 30.4027 299.963 27.6362 299.963 24.4964C299.963 21.4523 300.518 18.7337 301.628 16.3405C302.739 13.9282 304.328 12.0232 306.395 10.6256C308.463 9.20889 310.933 8.50051 313.805 8.50051C317.825 8.50051 321.003 9.85026 323.339 12.5497C325.694 15.2492 326.871 18.9538 326.871 23.6636C326.871 24.1805 326.852 24.6974 326.814 25.2144C326.795 25.7121 326.766 26.1525 326.728 26.5354H306.625ZM313.862 13.2677C311.852 13.2677 310.186 13.9856 308.865 15.4215C307.544 16.8574 306.788 19.0974 306.596 22.1415H320.64C320.582 19.2889 319.969 17.0968 318.802 15.5651C317.653 14.0335 316.006 13.2677 313.862 13.2677ZM362.301 9.30462L351.618 39.6308H344.094L333.411 9.30462H340.303L347.999 34.2892L355.724 9.30462H362.301Z" fill="black"/>
<path d="M26.88 5.11179L29.8379 9.7641L10.1949 21.6246L29.8379 33.4851L26.679 38.1087L4.65231 24.3815V18.8677L26.88 5.11179Z" fill="black"/>
<path d="M393.639 5.11179L415.838 18.839V24.3815L393.811 38.1087L390.652 33.5713L410.324 21.6246L390.652 9.85026L393.639 5.11179Z" fill="black"/>
</svg>
