<svg width="111" height="111" viewBox="0 0 111 111" fill="none" xmlns="http://www.w3.org/2000/svg">
<rect width="35" height="35" fill="black"/>
<path d="M15.6892 15.0923L16.2492 25H14.7272L14.4903 20.1754C14.4568 19.4526 14.4424 18.7778 14.4472 18.1508C14.452 17.519 14.4639 16.9877 14.4831 16.5569L13.0256 23.2554H11.5754L10.0103 16.5569C10.039 16.9685 10.0581 17.5046 10.0677 18.1651C10.0821 18.8256 10.0773 19.5005 10.0533 20.1897L9.85949 25H8.36615L8.92615 15.0923H10.9221L12.3364 21.7333L13.6862 15.0923H15.6892ZM20.9569 23.4205L23.3261 15.0923H25.0133L21.8758 25H19.9661L16.8287 15.0923H18.6092L20.9569 23.4205Z" fill="white"/>
<path d="M8.72 3.37026L9.45949 4.53333L4.54872 7.49846L9.45949 10.4636L8.66974 11.6195L3.16308 8.18769V6.80923L8.72 3.37026Z" fill="white"/>
<path d="M25.9097 24.3703L31.4595 27.8021V29.1877L25.9528 32.6195L25.1631 31.4851L30.081 28.4985L25.1631 25.5549L25.9097 24.3703Z" fill="white"/>
<rect width="111" height="111" fill="black"/>
<path d="M50.9217 39.9319L52.7617 72.4857H47.7607L46.9822 56.6334C46.8721 54.2587 46.825 52.0413 46.8407 49.9811C46.8564 47.9052 46.8957 46.1596 46.9586 44.7442L42.1699 66.7534H37.4048L32.2622 44.7442C32.3566 46.0967 32.4195 47.858 32.451 50.0283C32.4981 52.1985 32.4824 54.416 32.4038 56.6806L31.7668 72.4857H26.8602L28.7002 39.9319H35.2581L39.9053 61.7524L44.3402 39.9319H50.9217ZM68.2297 67.296L76.0143 39.9319H81.5579L71.2492 72.4857H64.9743L54.6656 39.9319H60.5158L68.2297 67.296Z" fill="white"/>
<path d="M28.08 7.64513L30.5097 11.4667L14.3744 21.2092L30.5097 30.9518L27.9149 34.7497L9.82154 23.4738V18.9446L28.08 7.64513Z" fill="white"/>
<path d="M82.0462 74.2451L100.281 85.521V90.0739L82.1878 101.35L79.5929 97.6226L95.7519 87.8092L79.5929 78.1374L82.0462 74.2451Z" fill="white"/>
</svg>
